<svg xmlns="http://www.w3.org/2000/svg" width="1440" height="1000" viewBox="0 0 1440 1000">
  <defs>
    <filter id="shadow" x="-20%" y="-20%" width="140%" height="140%">
      <feDropShadow dx="0" dy="18" stdDeviation="18" flood-color="#0f172a" flood-opacity="0.16"/>
    </filter>
    <style>
      .ui { font-family: Inter, -apple-system, BlinkMacSystemFont, "Segoe UI", sans-serif; }
      .small { font-size: 12px; }
      .tiny { font-size: 10px; font-weight: 800; text-transform: uppercase; }
      .label { fill: #64748b; font-size: 12px; font-weight: 700; }
      .body { fill: #1f2937; font-size: 16px; }
      .muted { fill: #64748b; }
      .h1 { fill: #111827; font-size: 34px; font-weight: 850; }
      .h2 { fill: #111827; font-size: 22px; font-weight: 800; }
      .chip { fill: #f8fafc; stroke: #cbd5e1; }
      .button { fill: #f1f5f9; stroke: #cbd5e1; }
    </style>
  </defs>
  <rect width="1440" height="1000" fill="#f4f7f5"/>
  <g opacity="0.42">
    <path d="M0 192h1440" stroke="#dbe4dd"/>
    <path d="M0 224h1440" stroke="#dbe4dd"/>
    <path d="M0 256h1440" stroke="#dbe4dd"/>
    <path d="M0 288h1440" stroke="#dbe4dd"/>
    <path d="M0 320h1440" stroke="#dbe4dd"/>
    <path d="M0 352h1440" stroke="#dbe4dd"/>
    <path d="M0 384h1440" stroke="#dbe4dd"/>
  </g>

  <g class="ui">
    <rect x="0" y="0" width="1440" height="154" fill="#ffffff" stroke="#cbd5e1"/>
    <rect x="16" y="12" width="34" height="34" rx="6" fill="#2f7d5b"/>
    <text x="33" y="35" text-anchor="middle" fill="#ffffff" font-size="18" font-weight="900">A</text>
    <text x="64" y="25" fill="#111827" font-size="15" font-weight="850">Astryx Editor</text>
    <text x="64" y="43" class="muted small">Progressive word editor artifact</text>

    <g transform="translate(1110 15)">
      <rect class="chip" x="0" y="0" width="88" height="24" rx="6"/>
      <text x="44" y="16" text-anchor="middle" fill="#166534" class="small" font-weight="800">112 words</text>
      <rect class="chip" x="96" y="0" width="78" height="24" rx="6"/>
      <text x="135" y="16" text-anchor="middle" fill="#1d4ed8" class="small" font-weight="800">12 blocks</text>
      <rect class="chip" x="182" y="0" width="70" height="24" rx="6"/>
      <text x="217" y="16" text-anchor="middle" fill="#7c3aed" class="small" font-weight="800">1 min</text>
    </g>

    <rect x="0" y="58" width="1440" height="32" fill="#f1f5f9" stroke="#d8dee8"/>
    <rect x="16" y="58" width="64" height="31" fill="#2f7d5b"/>
    <text x="48" y="78" text-anchor="middle" fill="#ffffff" class="small" font-weight="800">File</text>
    <rect x="84" y="59" width="76" height="31" fill="#ffffff" stroke="#cbd5e1"/>
    <rect x="84" y="59" width="76" height="3" fill="#2f7d5b"/>
    <text x="122" y="78" text-anchor="middle" fill="#111827" class="small" font-weight="800">Home</text>
    <text x="196" y="78" fill="#64748b" class="small" font-weight="800">Insert</text>
    <text x="260" y="78" fill="#64748b" class="small" font-weight="800">Review</text>
    <text x="332" y="78" fill="#64748b" class="small" font-weight="800">View</text>

    <rect x="0" y="90" width="1440" height="64" fill="#f8fafc"/>
    <g transform="translate(16 100)">
      <text x="34" y="40" class="label" text-anchor="middle">History</text>
      <rect class="button" x="0" y="0" width="28" height="28" rx="6"/>
      <path d="M18 10h-6a5 5 0 1 0 4 8" fill="none" stroke="#334155" stroke-width="2"/>
      <rect class="button" x="34" y="0" width="28" height="28" rx="6"/>
      <path d="M44 10h6a5 5 0 1 1-4 8" fill="none" stroke="#334155" stroke-width="2"/>
    </g>
    <g transform="translate(104 100)">
      <rect class="button" x="0" y="0" width="144" height="28" rx="6"/>
      <text x="14" y="19" fill="#111827" class="small" font-weight="800">Paragraph</text>
      <text x="72" y="40" class="label" text-anchor="middle">Block</text>
    </g>
    <g transform="translate(276 100)">
      <text x="74" y="40" class="label" text-anchor="middle">Text</text>
      <rect class="button" x="0" y="0" width="28" height="28" rx="6"/>
      <text x="14" y="19" text-anchor="middle" fill="#111827" font-size="13" font-weight="900">B</text>
      <rect class="button" x="34" y="0" width="28" height="28" rx="6"/>
      <text x="48" y="19" text-anchor="middle" fill="#111827" font-size="13" font-style="italic" font-weight="800">I</text>
      <rect class="button" x="68" y="0" width="28" height="28" rx="6"/>
      <text x="82" y="19" text-anchor="middle" fill="#111827" font-size="13" text-decoration="underline">U</text>
      <rect class="button" x="102" y="0" width="28" height="28" rx="6"/>
      <path d="M110 14h14" stroke="#b45309" stroke-width="5"/>
    </g>
    <g transform="translate(448 100)">
      <text x="70" y="40" class="label" text-anchor="middle">Review</text>
      <rect class="button" x="0" y="0" width="32" height="28" rx="6"/>
      <path d="M9 8h14v9H13l-4 4z" fill="none" stroke="#7c3aed" stroke-width="2"/>
      <rect class="button" x="40" y="0" width="94" height="28" rx="6"/>
      <text x="87" y="18" text-anchor="middle" fill="#111827" class="small" font-weight="800">4 suggestions</text>
      <rect class="button" x="142" y="0" width="86" height="28" rx="6"/>
      <text x="185" y="18" text-anchor="middle" fill="#111827" class="small" font-weight="800">1 comment</text>
      <rect class="button" x="236" y="0" width="76" height="28" rx="6" fill="#ecfeff"/>
      <text x="274" y="18" text-anchor="middle" fill="#0e7490" class="small" font-weight="800">AI draft</text>
    </g>
    <g transform="translate(1180 100)">
      <text x="78" y="40" class="label" text-anchor="middle">View</text>
      <rect class="button" x="0" y="0" width="150" height="28" rx="6"/>
      <text x="14" y="18" fill="#111827" class="small" font-weight="800">Neutral</text>
      <circle cx="174" cy="14" r="9" fill="#2f7d5b"/>
      <text x="192" y="18" fill="#111827" class="small" font-weight="800">Complete</text>
    </g>

    <rect x="0" y="154" width="1440" height="846" fill="#eef3ef"/>
    <rect x="54" y="178" width="826" height="24" fill="#ffffff" stroke="#cbd5e1"/>
    <path d="M220 178v24M386 178v24M552 178v24M718 178v24" stroke="#cbd5e1"/>

    <rect x="54" y="222" width="826" height="684" rx="4" fill="#ffffff" stroke="#cbd5e1" filter="url(#shadow)"/>
    <g transform="translate(136 292)">
      <text class="h1" x="0" y="0">Project Brief: Astryx Editor</text>
      <text class="body" x="0" y="50">A compact authoring surface for</text>
      <rect x="262" y="30" width="452" height="29" rx="3" fill="#f3e8ff"/>
      <path d="M262 60h452" stroke="#7c3aed" stroke-width="2"/>
      <text class="body" x="270" y="50">drafting product briefs, release notes, technical plans,</text>
      <text class="body" x="0" y="78">and long-form working documents.</text>

      <text class="h2" x="0" y="136">Release Shape</text>
      <text class="body" x="0" y="176">The first public package should feel useful as a complete editor while</text>
      <text class="body" x="0" y="204">still exposing the core document primitives for embedded use.</text>
      <circle cx="8" cy="250" r="3" fill="#111827"/>
      <text class="body" x="24" y="256">Use Astryx themes for product chrome, commands, status, and document furniture.</text>
      <circle cx="8" cy="288" r="3" fill="#111827"/>
      <text class="body" x="24" y="294">Keep the editing engine independent from the surrounding application shell.</text>
      <circle cx="8" cy="326" r="3" fill="#111827"/>
      <text class="body" x="24" y="332">Make document state easy to serialize as HTML, JSON, and plain text.</text>

      <rect x="0" y="374" width="650" height="66" fill="#f8fafc" stroke="#cbd5e1"/>
      <rect x="0" y="374" width="4" height="66" fill="#2f7d5b"/>
      <text class="body" x="18" y="400">The package should start small, but every layer should be replaceable</text>
      <text class="body" x="18" y="428">by a host application.</text>

      <text class="h2" x="0" y="500">Draft Notes</text>
      <text class="body" x="0" y="540">In order to validate review affordances, this draft includes</text>
      <rect x="464" y="520" width="34" height="26" rx="3" fill="#fee2e2"/>
      <text class="body" x="470" y="540">teh</text>
      <text class="body" x="506" y="540">kind of rough wording</text>
      <text class="body" x="0" y="568">that is really useful during editing.</text>
    </g>

    <g transform="translate(54 922)">
      <text x="826" y="0" text-anchor="end" class="muted small">112 words   642 letters   1 min read</text>
    </g>

    <g transform="translate(54 940)">
      <rect x="0" y="0" width="300" height="48" rx="6" fill="#ffffff" stroke="#cbd5e1"/>
      <text x="12" y="18" class="label">Autocomplete</text>
      <rect x="116" y="12" width="82" height="24" rx="6" fill="#f1f5f9" stroke="#cbd5e1"/>
      <text x="157" y="28" text-anchor="middle" fill="#111827" class="small" font-weight="800">writing</text>
      <rect x="204" y="12" width="84" height="24" rx="6" fill="#f1f5f9" stroke="#cbd5e1"/>
      <text x="246" y="28" text-anchor="middle" fill="#111827" class="small" font-weight="800">workflow</text>

      <rect x="314" y="0" width="566" height="48" rx="6" fill="#ffffff" stroke="#cbd5e1"/>
      <text x="326" y="18" class="label">AI draft</text>
      <rect x="408" y="8" width="180" height="32" rx="6" fill="#ecfeff" stroke="#67e8f9"/>
      <text x="420" y="22" fill="#0e7490" class="small" font-weight="850">Continue paragraph</text>
      <text x="420" y="34" fill="#0f766e" font-size="10">Offline AI-style draft</text>
      <rect x="598" y="8" width="224" height="32" rx="6" fill="#f8fafc" stroke="#cbd5e1"/>
      <text x="610" y="22" fill="#111827" class="small" font-weight="850">Expand review workflow</text>
      <text x="610" y="34" fill="#64748b" font-size="10">Review-focused continuation</text>
    </g>

    <rect x="912" y="154" width="528" height="846" fill="#ffffff" stroke="#cbd5e1"/>
    <rect x="912" y="154" width="528" height="38" fill="#f1f5f9" stroke="#cbd5e1"/>
    <g class="small" font-weight="850">
      <rect x="912" y="154" width="106" height="38" fill="#ffffff"/>
      <rect x="912" y="189" width="106" height="3" fill="#2f7d5b"/>
      <text x="965" y="178" text-anchor="middle" fill="#111827">Review</text>
      <text x="1070" y="178" text-anchor="middle" fill="#64748b">Comments</text>
      <text x="1176" y="178" text-anchor="middle" fill="#64748b">Outline</text>
      <text x="1282" y="178" text-anchor="middle" fill="#64748b">Stats</text>
      <text x="1388" y="178" text-anchor="middle" fill="#64748b">Source</text>
    </g>
    <g transform="translate(936 214)">
      <rect class="chip" x="0" y="0" width="112" height="24" rx="6"/>
      <text x="56" y="16" text-anchor="middle" fill="#b45309" class="small" font-weight="800">4 suggestions</text>
      <rect class="chip" x="120" y="0" width="118" height="24" rx="6"/>
      <text x="179" y="16" text-anchor="middle" fill="#7c3aed" class="small" font-weight="800">1 open comment</text>

      <g transform="translate(0 46)">
        <rect x="0" y="0" width="456" height="112" rx="6" fill="#fff7ed" stroke="#fdba74"/>
        <rect x="0" y="0" width="4" height="112" fill="#ea580c"/>
        <text x="14" y="20" fill="#9a3412" class="tiny">Wordy</text>
        <text x="14" y="46" fill="#111827" font-size="15" font-weight="850">Wordy phrase: "In order to"</text>
        <text x="14" y="70" class="muted small">Try "to".</text>
        <rect x="14" y="82" width="58" height="24" rx="6" fill="#ffffff" stroke="#cbd5e1"/>
        <text x="43" y="98" text-anchor="middle" fill="#111827" class="small" font-weight="800">Apply</text>
        <rect x="80" y="82" width="78" height="24" rx="6" fill="#ffffff" stroke="#cbd5e1"/>
        <text x="119" y="98" text-anchor="middle" fill="#111827" class="small" font-weight="800">Comment</text>
      </g>
      <g transform="translate(0 172)">
        <rect x="0" y="0" width="456" height="112" rx="6" fill="#fef2f2" stroke="#fecaca"/>
        <rect x="0" y="0" width="4" height="112" fill="#dc2626"/>
        <text x="14" y="20" fill="#991b1b" class="tiny">Typo</text>
        <text x="14" y="46" fill="#111827" font-size="15" font-weight="850">Possible typo: "teh"</text>
        <text x="14" y="70" class="muted small">Replace with "the".</text>
        <rect x="14" y="82" width="58" height="24" rx="6" fill="#ffffff" stroke="#cbd5e1"/>
        <text x="43" y="98" text-anchor="middle" fill="#111827" class="small" font-weight="800">Apply</text>
        <rect x="80" y="82" width="78" height="24" rx="6" fill="#ffffff" stroke="#cbd5e1"/>
        <text x="119" y="98" text-anchor="middle" fill="#111827" class="small" font-weight="800">Comment</text>
      </g>
      <g transform="translate(0 298)">
        <rect x="0" y="0" width="456" height="112" rx="6" fill="#eff6ff" stroke="#bfdbfe"/>
        <rect x="0" y="0" width="4" height="112" fill="#2563eb"/>
        <text x="14" y="20" fill="#1d4ed8" class="tiny">Hedge</text>
        <text x="14" y="46" fill="#111827" font-size="15" font-weight="850">Hedge word: "really"</text>
        <text x="14" y="70" class="muted small">Remove it when the sentence is stronger without it.</text>
        <rect x="14" y="82" width="58" height="24" rx="6" fill="#ffffff" stroke="#cbd5e1"/>
        <text x="43" y="98" text-anchor="middle" fill="#111827" class="small" font-weight="800">Apply</text>
        <rect x="80" y="82" width="78" height="24" rx="6" fill="#ffffff" stroke="#cbd5e1"/>
        <text x="119" y="98" text-anchor="middle" fill="#111827" class="small" font-weight="800">Comment</text>
      </g>
    </g>
  </g>
</svg>
